<svg width="667" height="799" viewBox="0 0 667 799" fill="none" xmlns="http://www.w3.org/2000/svg">
<g filter="url(#filter0_d_42_33)">
<path d="M135.4 93.6C125.133 93.6 114.933 93.9333 104.8 94.6C94.6667 95.1333 84.5333 95.4 74.4 95.4C76.1333 95.5333 77.8 95.6667 79.4 95.8C81.1333 95.8 82.9333 95.8 84.8 95.8C90.9333 95.8 97 95.7333 103 95.6C109.133 95.3333 115.267 95.2 121.4 95.2H127.4C129.4 95.2 131.467 95.2667 133.6 95.4C131.733 96.6 129.733 97.4667 127.6 98C125.6 98.5333 123.533 98.9333 121.4 99.2C119.4 99.3333 117.267 99.4 115 99.4C112.867 99.4 110.733 99.4667 108.6 99.6L106.8 97.2C103.733 97.7333 100.667 98.0667 97.6 98.2C94.5333 98.3333 91.4667 98.4 88.4 98.4L70.6 98.2L70.8 100L104.2 99.8C92.8667 100.467 81.7333 100.867 70.8 101C70.9333 102.733 71.0667 104.467 71.2 106.2C71.3333 107.8 71.5333 109.467 71.8 111.2L69.4 111.8C70.4667 116.333 71.2 121.333 71.6 126.8C72.1333 132.133 72.6 137.6 73 143.2C73.4 148.8 73.9333 154.333 74.6 159.8C75.4 165.133 76.5333 170 78 174.4L78.6 173.8C77.8 169.267 77.0667 164.4 76.4 159.2C75.7333 153.867 75.0667 148.467 74.4 143C73.8667 137.4 73.3333 131.933 72.8 126.6C72.4 121.533 72.0667 116.8 71.8 112.4C72.3333 119.467 73.1333 126.867 74.2 134.6C75.4 142.467 76.6667 150.467 78 158.6C79.3333 166.6 80.6 174.533 81.8 182.4C83.1333 190.267 84.3333 197.8 85.4 205C85.6667 207.267 86 209.733 86.4 212.4C86.8 214.933 87 217.533 87 220.2V222.6C87 223.533 86.8667 224.4 86.6 225.2C85.6667 225.2 84.7333 225.333 83.8 225.6C83 226 82.1333 226.2 81.2 226.2C79.7333 226.2 78.8 225.467 78.4 224C78.1333 222.533 78 221.267 78 220.2H76.2C76.0667 221 75.8 222 75.4 223.2C75.1333 224.533 74.6667 225.8 74 227C73.4667 228.2 72.7333 229.2 71.8 230C71 230.8 70.0667 231.2 69 231.2C67.6667 231.2 66.4667 230.267 65.4 228.4C64.3333 226.533 63.3333 224.133 62.4 221.2C61.6 218.267 60.8667 215.067 60.2 211.6C59.6667 208 59.1333 204.6 58.6 201.4C58.2 198.067 57.8 195.067 57.4 192.4C57.1333 189.733 56.8667 187.8 56.6 186.6C55.2667 181 54 174.867 52.8 168.2C51.7333 161.533 50.8 154.8 50 148C49.2 141.2 48.5333 134.467 48 127.8C47.6 121 47.4 114.667 47.4 108.8C47.4 107.867 47.4 107 47.4 106.2C47.5333 105.267 47.6 104.333 47.6 103.4V102.2C47.6 101.667 47.5333 101.133 47.4 100.6C39.5333 100.467 32.0667 100.133 25 99.6C17.9333 98.9333 10.0667 98.0667 1.4 97C1.53333 96.2 1.6 95.3333 1.6 94.4C1.6 93.4667 1.66667 92.6 1.8 91.8C2.06667 91 2.4 90.3333 2.8 89.8C3.33333 89.1333 4.2 88.8 5.4 88.8C6.2 88.8 7.13333 88.9333 8.2 89.2L8.8 87.4C7.2 86.7333 5.33333 85.6667 3.2 84.2C1.06667 82.7333 0 81 0 79C0 77.8 0.466667 76.9333 1.4 76.4C2.33333 75.7333 3.46667 75.2667 4.8 75C6.13333 74.7333 7.46667 74.6 8.8 74.6C10.1333 74.4667 11.1333 74.4 11.8 74.4C16.6 74.4 21.3333 74.6667 26 75.2C30.8 75.7333 35.6 76 40.4 76C52.5333 76 64.6 76.2 76.6 76.6C88.6 76.8667 100.667 77 112.8 77C115.2 77 117.533 76.6667 119.8 76C122.2 75.3333 124.6 75 127 75C127.933 75 128.733 75.2667 129.4 75.8C130.2 76.3333 130.6 77.1333 130.6 78.2C127 78.8667 123.333 79.4 119.6 79.8C116.267 80.0667 112.867 80.3333 109.4 80.6C112.867 80.6 116.267 80.4667 119.6 80.2C123.2 79.9333 126.867 79.6667 130.6 79.4V83.2L134.2 82.6C135.267 82.8667 136.267 83.4 137.2 84.2C138.133 84.8667 138.6 85.8667 138.6 87.2C138.6 88.4 138.267 89.6 137.6 90.8C136.933 91.8667 136.2 92.8 135.4 93.6ZM65.2 101C65.4667 104.867 65.8 109.133 66.2 113.8C66.7333 118.467 67.2667 123.2 67.8 128C68.3333 132.8 68.8667 137.533 69.4 142.2C70.0667 146.733 70.6667 150.933 71.2 154.8C70.8 151.067 70.3333 146.867 69.8 142.2C69.4 137.533 69 132.8 68.6 128C68.2 123.2 67.8 118.467 67.4 113.8C67.1333 109.133 67 104.867 67 101H65.2ZM101.6 80.6H90.6C87.2667 80.6 83.9333 80.5333 80.6 80.4C82.2 80.6667 83.7333 80.9333 85.2 81.2C87.0667 81.6 89.1333 81.8 91.4 81.8C93 81.8 94.6667 81.6667 96.4 81.4C98.2667 81.1333 100 80.8667 101.6 80.6ZM66 100H67V98.2H66V100ZM149.77 209.6C150.304 205.867 150.77 201.533 151.17 196.6C151.704 191.533 152.17 186.467 152.57 181.4C152.97 176.333 153.37 171.4 153.77 166.6C154.17 161.667 154.57 157.4 154.97 153.8C154.304 157.4 153.704 161.533 153.17 166.2C152.637 170.867 152.104 175.667 151.57 180.6C151.037 185.533 150.504 190.467 149.97 195.4C149.437 200.2 148.97 204.533 148.57 208.4C146.57 207.067 145.57 205.267 145.57 203C145.57 200.333 145.637 198.133 145.77 196.4C145.904 194.533 146.104 192.4 146.37 190L148.57 188C148.437 187.333 148.37 186.733 148.37 186.2V184.2C148.37 181.133 148.704 177.667 149.37 173.8C150.037 169.8 150.77 165.8 151.57 161.8C152.504 157.667 153.304 153.733 153.97 150C154.637 146.133 154.97 142.8 154.97 140L152.57 139.4C152.304 142.6 151.904 146.267 151.37 150.4C150.837 154.4 150.237 158.6 149.57 163C149.037 167.267 148.504 171.533 147.97 175.8C147.704 178.067 147.437 180.2 147.17 182.2C147.437 178.467 147.77 174.467 148.17 170.2C148.837 164.067 149.504 158 150.17 152C150.97 145.867 151.704 139.867 152.37 134C153.037 128.133 153.704 122.733 154.37 117.8C154.37 115.8 154.837 113.667 155.77 111.4C156.837 109 157.57 106.533 157.97 104C158.77 104.267 159.437 104.4 159.97 104.4H161.37C162.704 104.4 163.57 104.733 163.97 105.4C164.37 105.933 164.57 106.733 164.57 107.8V108.8L166.37 109.4C167.437 107.4 168.704 105.8 170.17 104.6C171.637 103.4 173.104 102.8 174.57 102.8C177.77 102.8 179.37 106.2 179.37 113C179.37 116.6 178.97 120.467 178.17 124.6C177.504 128.6 177.17 132.533 177.17 136.4V139C177.17 143.267 176.704 147.933 175.77 153C174.837 157.933 173.77 163 172.57 168.2C171.504 173.267 170.504 178.2 169.57 183C168.637 187.8 168.17 192.2 168.17 196.2C168.17 197.133 168.237 198.133 168.37 199.2C168.504 200.267 168.57 201.267 168.57 202.2C168.57 204.2 168.17 205.467 167.37 206C166.704 206.4 165.837 206.6 164.77 206.6C164.77 204.867 164.704 202.733 164.57 200.2C164.437 197.667 164.37 195.4 164.37 193.4C164.104 194.867 163.97 196.867 163.97 199.4C163.97 201.933 163.837 204.333 163.57 206.6H160.57V209C159.37 211.133 157.77 212.2 155.77 212.2C154.837 212.2 153.77 211.933 152.57 211.4C151.37 210.867 150.437 210.267 149.77 209.6ZM190.97 56C188.704 57.3333 186.637 59.0667 184.77 61.2C182.904 63.3333 180.97 65.4 178.97 67.4C180.17 66.6 181.237 65.7333 182.17 64.8C183.104 63.8667 184.037 62.9333 184.97 62C186.037 61.0667 187.104 60.1333 188.17 59.2C189.37 58.2667 190.704 57.4 192.17 56.6C192.57 57.1333 192.904 57.6 193.17 58C193.57 58.4 193.77 58.8 193.77 59.2L189.17 63.8C189.17 63.5333 188.904 63.2667 188.37 63C187.97 62.7333 187.637 62.6 187.37 62.6C186.97 63.9333 186.304 65 185.37 65.8C184.437 66.6 183.504 67.3333 182.57 68C181.637 68.6667 180.704 69.4 179.77 70.2C178.837 71 178.17 72.0667 177.77 73.4V73.8C177.77 73.9333 177.97 74 178.37 74L188.37 64.6L184.57 68.4C182.704 70.2667 180.704 72.2 178.57 74.2C176.57 76.0667 174.637 77.7333 172.77 79.2C171.037 80.6667 169.97 81.4 169.57 81.4L169.37 81.2C168.437 80.9333 167.437 80.8 166.37 80.8C165.437 80.8 164.437 80.7333 163.37 80.6C163.37 79.5333 163.17 78.4 162.77 77.2C162.504 76 162.37 75.0667 162.37 74.4C162.37 73.7333 162.704 73.4 163.37 73.4C163.37 73 163.104 72.4 162.57 71.6C162.17 70.6667 161.704 69.6667 161.17 68.6C160.637 67.4 160.104 66.2 159.57 65C159.17 63.6667 158.97 62.3333 158.97 61C158.97 59.6667 159.504 58.4 160.57 57.2C161.77 55.8667 163.104 54.7333 164.57 53.8C166.17 52.8667 167.704 52.0667 169.17 51.4C170.637 50.7333 171.704 50.2667 172.37 50C172.904 50 173.104 49.7333 172.97 49.2C172.837 48.5333 173.037 48.2 173.57 48.2L177.17 49.4C176.904 50.0667 176.037 51.2 174.57 52.8C173.237 54.2667 172.237 55.3333 171.57 56C172.504 55.3333 173.57 54.3333 174.77 53C176.104 51.6667 177.104 50.6667 177.77 50C178.437 50.2667 179.037 50.5333 179.57 50.8C180.104 51.0667 180.504 51.2 180.77 51.2L181.37 50.6C182.304 50.6 183.304 50.8 184.37 51.2C185.57 51.6 186.637 52.0667 187.57 52.6C188.504 53.1333 189.304 53.7333 189.97 54.4C190.637 55.0667 190.97 55.6 190.97 56ZM146.77 187C146.904 185.533 147.037 184.067 147.17 182.6C147.037 184.2 146.904 185.667 146.77 187ZM304.805 209.4C298.938 211.8 292.871 213.667 286.605 215C280.471 216.333 274.205 217 267.805 217C261.938 217 256.205 216.333 250.605 215C245.005 213.667 239.871 211.533 235.205 208.6C230.538 205.667 226.405 201.867 222.805 197.2C219.338 192.4 216.671 186.667 214.805 180C215.205 185.867 216.805 190.933 219.605 195.2C222.405 199.333 225.871 202.933 230.005 206C234.271 208.933 238.938 211.333 244.005 213.2C249.071 215.067 253.938 216.6 258.605 217.8C259.271 217.933 260.205 218 261.405 218C269.271 218 276.405 217.333 282.805 216C289.205 214.667 295.738 213.267 302.405 211.8C300.271 213.533 297.671 215.067 294.605 216.4C291.671 217.6 288.405 218.667 284.805 219.6C281.338 220.4 277.671 221 273.805 221.4C269.938 221.933 266.071 222.2 262.205 222.2H260.005C259.338 222.2 258.671 222.133 258.005 222L256.605 219.4C251.805 218.867 246.805 217.667 241.605 215.8C236.405 213.933 231.605 211.333 227.205 208C222.938 204.533 219.338 200.333 216.405 195.4C213.605 190.467 212.205 184.733 212.205 178.2C212.205 172.733 212.938 167.4 214.405 162.2C215.871 157 217.805 151.933 220.205 147C220.071 147.133 219.871 147.2 219.605 147.2C219.205 147.2 219.005 146.933 219.005 146.4C216.605 151.2 214.538 156.2 212.805 161.4C211.205 166.467 210.405 172 210.405 178C210.405 184.4 211.871 190.067 214.805 195C217.738 199.933 221.205 204.133 225.205 207.6C229.338 210.933 233.538 213.667 237.805 215.8C241.671 217.667 244.871 219 247.405 219.8C243.271 218.6 239.071 216.867 234.805 214.6C230.271 212.2 226.138 209.2 222.405 205.6C218.805 201.867 215.805 197.6 213.405 192.8C211.005 187.867 209.805 182.467 209.805 176.6C209.805 168.2 211.338 160.333 214.405 153C217.471 145.667 221.538 139.333 226.605 134C231.671 128.533 237.471 124.267 244.005 121.2C250.671 118 257.538 116.4 264.605 116.4C265.805 116.133 267.271 116 269.005 116C270.871 115.867 272.405 115.8 273.605 115.8C277.871 116.733 282.138 117.867 286.405 119.2C290.805 120.533 295.138 122.4 299.405 124.8C298.871 125.067 298.471 125.467 298.205 126C298.071 126.4 297.938 126.933 297.805 127.6C297.671 128.133 297.405 128.6 297.005 129C296.738 129.4 296.205 129.6 295.405 129.6C294.738 129.6 293.738 129.4 292.405 129C291.071 128.6 289.205 128 286.805 127.2C286.405 127.6 286.205 128.2 286.205 129C289.405 130.6 291.605 132.467 292.805 134.6C294.005 136.6 294.605 138.533 294.605 140.4C294.605 141.333 293.605 142.133 291.605 142.8C289.871 142.8 287.138 142.467 283.405 141.8C279.805 141.133 275.738 140.8 271.205 140.8C269.205 140.8 267.005 140.933 264.605 141.2C262.205 141.333 259.805 141.733 257.405 142.4C255.005 142.933 252.738 143.8 250.605 145C248.471 146.067 246.738 147.533 245.405 149.4C243.805 151.533 242.338 153.933 241.005 156.6C239.671 159.267 238.471 162 237.405 164.8C236.338 167.467 235.471 170.067 234.805 172.6C234.271 175.133 234.005 177.4 234.005 179.4C234.005 181.267 234.871 183.4 236.605 185.8C238.338 188.067 240.538 190.267 243.205 192.4C246.005 194.4 249.138 196.133 252.605 197.6C256.205 199.067 259.805 199.8 263.405 199.8C265.138 199.8 267.205 199.533 269.605 199C272.138 198.467 274.671 197.867 277.205 197.2C279.871 196.4 282.471 195.733 285.005 195.2C287.538 194.667 289.671 194.4 291.405 194.4C293.005 194.4 294.005 194.6 294.405 195C294.938 195.267 295.205 195.867 295.205 196.8C292.138 197.867 288.938 198.933 285.605 200C283.471 200.667 281.405 201.333 279.405 202L285.605 200.4C288.805 199.467 292.005 198.467 295.205 197.4C295.205 198.067 295.205 198.667 295.205 199.2C295.338 199.733 295.738 200.333 296.405 201L298.405 200.2C299.471 199.8 300.605 199.267 301.805 198.6C304.471 198.6 306.271 198.867 307.205 199.4C308.271 199.933 308.805 200.733 308.805 201.8C308.805 202.467 308.671 203.067 308.405 203.6C308.271 204 308.005 204.467 307.605 205C307.338 205.4 306.938 205.933 306.405 206.6C305.871 207.267 305.338 208.2 304.805 209.4ZM232.205 185.4C233.271 187.8 234.871 190.133 237.005 192.4C239.138 194.533 241.538 196.467 244.205 198.2C247.005 199.8 249.938 201.133 253.005 202.2C255.938 203.267 258.871 203.867 261.805 204C259.138 203.733 256.338 203.067 253.405 202C250.338 200.933 247.405 199.6 244.605 198C241.938 196.267 239.471 194.333 237.205 192.2C235.071 190.067 233.405 187.8 232.205 185.4ZM278.205 202.2C278.605 202.067 279.005 202 279.405 202C279.005 202 278.605 202.067 278.205 202.2ZM248.205 220C247.938 220 247.671 219.933 247.405 219.8C247.671 219.933 247.938 220 248.205 220Z" fill="white"/>
</g>
<g filter="url(#filter1_d_42_33)">
<path d="M400.4 272.6C390.133 272.6 379.933 272.933 369.8 273.6C359.667 274.133 349.533 274.4 339.4 274.4C341.133 274.533 342.8 274.667 344.4 274.8C346.133 274.8 347.933 274.8 349.8 274.8C355.933 274.8 362 274.733 368 274.6C374.133 274.333 380.267 274.2 386.4 274.2H392.4C394.4 274.2 396.467 274.267 398.6 274.4C396.733 275.6 394.733 276.467 392.6 277C390.6 277.533 388.533 277.933 386.4 278.2C384.4 278.333 382.267 278.4 380 278.4C377.867 278.4 375.733 278.467 373.6 278.6L371.8 276.2C368.733 276.733 365.667 277.067 362.6 277.2C359.533 277.333 356.467 277.4 353.4 277.4L335.6 277.2L335.8 279L369.2 278.8C357.867 279.467 346.733 279.867 335.8 280C335.933 281.733 336.067 283.467 336.2 285.2C336.333 286.8 336.533 288.467 336.8 290.2L334.4 290.8C335.467 295.333 336.2 300.333 336.6 305.8C337.133 311.133 337.6 316.6 338 322.2C338.4 327.8 338.933 333.333 339.6 338.8C340.4 344.133 341.533 349 343 353.4L343.6 352.8C342.8 348.267 342.067 343.4 341.4 338.2C340.733 332.867 340.067 327.467 339.4 322C338.867 316.4 338.333 310.933 337.8 305.6C337.4 300.533 337.067 295.8 336.8 291.4C337.333 298.467 338.133 305.867 339.2 313.6C340.4 321.467 341.667 329.467 343 337.6C344.333 345.6 345.6 353.533 346.8 361.4C348.133 369.267 349.333 376.8 350.4 384C350.667 386.267 351 388.733 351.4 391.4C351.8 393.933 352 396.533 352 399.2V401.6C352 402.533 351.867 403.4 351.6 404.2C350.667 404.2 349.733 404.333 348.8 404.6C348 405 347.133 405.2 346.2 405.2C344.733 405.2 343.8 404.467 343.4 403C343.133 401.533 343 400.267 343 399.2H341.2C341.067 400 340.8 401 340.4 402.2C340.133 403.533 339.667 404.8 339 406C338.467 407.2 337.733 408.2 336.8 409C336 409.8 335.067 410.2 334 410.2C332.667 410.2 331.467 409.267 330.4 407.4C329.333 405.533 328.333 403.133 327.4 400.2C326.6 397.267 325.867 394.067 325.2 390.6C324.667 387 324.133 383.6 323.6 380.4C323.2 377.067 322.8 374.067 322.4 371.4C322.133 368.733 321.867 366.8 321.6 365.6C320.267 360 319 353.867 317.8 347.2C316.733 340.533 315.8 333.8 315 327C314.2 320.2 313.533 313.467 313 306.8C312.6 300 312.4 293.667 312.4 287.8C312.4 286.867 312.4 286 312.4 285.2C312.533 284.267 312.6 283.333 312.6 282.4V281.2C312.6 280.667 312.533 280.133 312.4 279.6C304.533 279.467 297.067 279.133 290 278.6C282.933 277.933 275.067 277.067 266.4 276C266.533 275.2 266.6 274.333 266.6 273.4C266.6 272.467 266.667 271.6 266.8 270.8C267.067 270 267.4 269.333 267.8 268.8C268.333 268.133 269.2 267.8 270.4 267.8C271.2 267.8 272.133 267.933 273.2 268.2L273.8 266.4C272.2 265.733 270.333 264.667 268.2 263.2C266.067 261.733 265 260 265 258C265 256.8 265.467 255.933 266.4 255.4C267.333 254.733 268.467 254.267 269.8 254C271.133 253.733 272.467 253.6 273.8 253.6C275.133 253.467 276.133 253.4 276.8 253.4C281.6 253.4 286.333 253.667 291 254.2C295.8 254.733 300.6 255 305.4 255C317.533 255 329.6 255.2 341.6 255.6C353.6 255.867 365.667 256 377.8 256C380.2 256 382.533 255.667 384.8 255C387.2 254.333 389.6 254 392 254C392.933 254 393.733 254.267 394.4 254.8C395.2 255.333 395.6 256.133 395.6 257.2C392 257.867 388.333 258.4 384.6 258.8C381.267 259.067 377.867 259.333 374.4 259.6C377.867 259.6 381.267 259.467 384.6 259.2C388.2 258.933 391.867 258.667 395.6 258.4V262.2L399.2 261.6C400.267 261.867 401.267 262.4 402.2 263.2C403.133 263.867 403.6 264.867 403.6 266.2C403.6 267.4 403.267 268.6 402.6 269.8C401.933 270.867 401.2 271.8 400.4 272.6ZM330.2 280C330.467 283.867 330.8 288.133 331.2 292.8C331.733 297.467 332.267 302.2 332.8 307C333.333 311.8 333.867 316.533 334.4 321.2C335.067 325.733 335.667 329.933 336.2 333.8C335.8 330.067 335.333 325.867 334.8 321.2C334.4 316.533 334 311.8 333.6 307C333.2 302.2 332.8 297.467 332.4 292.8C332.133 288.133 332 283.867 332 280H330.2ZM366.6 259.6H355.6C352.267 259.6 348.933 259.533 345.6 259.4C347.2 259.667 348.733 259.933 350.2 260.2C352.067 260.6 354.133 260.8 356.4 260.8C358 260.8 359.667 260.667 361.4 260.4C363.267 260.133 365 259.867 366.6 259.6ZM331 279H332V277.2H331V279ZM500.809 366.4L499.609 365.8C494.009 364.333 488.076 363.4 481.809 363C475.543 362.6 469.143 361.733 462.609 360.4C469.009 361.733 475.276 362.8 481.409 363.6C487.543 364.267 493.609 365.6 499.609 367.6C497.743 368.8 495.743 369.4 493.609 369.4C491.076 369.133 488.543 368.733 486.009 368.2C483.609 367.667 481.009 367.267 478.209 367C478.209 366.2 478.409 365.6 478.809 365.2C474.943 365.2 471.076 364.8 467.209 364C463.476 363.2 459.809 362.333 456.209 361.4C452.609 360.333 449.076 359.4 445.609 358.6C442.276 357.667 439.143 357.2 436.209 357.2C436.209 357.6 436.143 357.8 436.009 357.8C439.476 358.467 442.743 359.4 445.809 360.6C448.876 361.8 452.343 362.733 456.209 363.4C459.943 364.333 463.543 365 467.009 365.4C470.609 365.8 474.143 366.333 477.609 367C472.009 366.467 466.276 365.667 460.409 364.6C454.676 363.533 449.009 362.333 443.409 361L434.009 358.6C430.676 367.133 427.276 375.533 423.809 383.8C420.476 391.933 417.209 400.2 414.009 408.6C413.743 408.067 413.276 407.733 412.609 407.6C412.076 407.6 411.476 407.6 410.809 407.6C410.276 407.6 409.743 407.4 409.209 407C408.676 406.733 408.409 406.067 408.409 405C408.409 403.933 408.676 402.4 409.209 400.4C409.743 398.533 410.743 396 412.209 392.8C411.943 392.533 411.476 392.4 410.809 392.4C410.276 392.267 409.876 392.2 409.609 392.2C406.943 397.8 404.343 402.067 401.809 405C399.409 408.067 397.476 409.6 396.009 409.6C394.409 409.6 393.609 408.067 393.609 405C393.609 402.467 394.076 399.267 395.009 395.4C395.943 391.4 397.076 387.133 398.409 382.6C399.876 378.067 401.476 373.4 403.209 368.6C404.943 363.667 406.609 358.867 408.209 354.2C406.743 353.267 405.143 352.6 403.409 352.2C401.809 351.8 400.009 351.467 398.009 351.2C398.409 350.667 398.609 350 398.609 349.2C398.609 348.4 398.676 347.6 398.809 346.8C398.943 346 399.209 345.333 399.609 344.8C400.009 344.267 400.743 344 401.809 344C402.076 344 402.876 344.133 404.209 344.4V342.6C402.076 341.533 400.409 340.267 399.209 338.8C398.143 337.333 397.609 335.867 397.609 334.4C397.609 331.2 400.676 329.6 406.809 329.6C408.543 329.6 410.276 329.733 412.009 330C413.876 330.133 415.743 330.333 417.609 330.6L426.809 309.6C428.809 305.067 430.943 300.4 433.209 295.6C435.609 290.8 438.409 286.067 441.609 281.4C444.809 276.733 448.409 272.333 452.409 268.2C456.543 263.933 461.276 260.133 466.609 256.8L469.609 255.6C473.343 256.533 476.343 257.333 478.609 258C481.009 258.533 482.943 258.933 484.409 259.2C485.743 259.733 486.809 260.067 487.609 260.2H487.409L487.609 260.8C487.609 260.933 487.543 261.067 487.409 261.2L489.809 265.4C498.476 279.933 505.809 295 511.809 310.6C517.809 326.2 522.943 341.533 527.209 356.6C528.276 359.933 529.543 363.533 531.009 367.4C532.609 371.133 534.076 374.733 535.409 378.2C536.876 381.533 538.076 384.6 539.009 387.4C539.943 390.067 540.409 392 540.409 393.2C540.409 394.133 540.209 394.733 539.809 395C539.409 395.133 538.876 395.2 538.209 395.2C534.743 386.533 531.476 378 528.409 369.6C525.343 361.333 522.343 353 519.409 344.6C522.076 353 524.876 361.333 527.809 369.6C530.876 378 533.943 386.533 537.009 395.2H535.609C534.809 395.2 534.276 395.6 534.009 396.4C534.276 396.667 534.609 397.4 535.009 398.6C535.409 399.667 535.809 400.8 536.209 402C536.609 403.333 536.943 404.667 537.209 406C537.476 407.333 537.609 408.333 537.609 409C537.609 411.933 536.743 413.4 535.009 413.4C534.076 413.4 533.343 413.2 532.809 412.8C532.276 412.4 531.676 411.867 531.009 411.2L529.009 409.2C528.209 408.4 527.209 407.6 526.009 406.8L506.809 351.6C509.609 360.267 512.343 368.933 515.009 377.6C517.809 386.267 520.676 394.8 523.609 403.2C521.476 400.667 519.476 397.6 517.609 394C515.876 390.4 514.209 386.6 512.609 382.6C511.143 378.6 509.743 374.533 508.409 370.4C507.076 366.133 505.743 362.133 504.409 358.4C504.409 358.667 504.409 358.933 504.409 359.2C504.543 359.333 504.609 359.533 504.609 359.8C504.609 361.933 503.943 363.533 502.609 364.6L500.809 366.4ZM499.609 345.6C499.876 345.6 500.276 345.533 500.809 345.4C501.343 345.133 501.743 345 502.009 345C497.609 333.933 493.209 323.2 488.809 312.8C484.543 302.4 479.809 292.4 474.609 282.8L473.409 284L476.409 289.4C481.076 297.933 485.276 306.733 489.009 315.8C492.743 324.867 496.276 334.2 499.609 343.8C495.743 333.4 491.543 323.067 487.009 312.8C482.609 302.4 477.876 293 472.809 284.6L472.009 285C467.476 289.667 463.209 295.267 459.209 301.8C455.343 308.333 451.676 315 448.209 321.8L443.009 334.4L446.409 335.2C448.409 335.733 450.343 336.333 452.209 337C454.209 337.533 455.943 338.133 457.409 338.8C460.343 340.267 464.209 341.4 469.009 342.2C473.809 343 478.476 343.8 483.009 344.6C487.676 345.267 491.676 346.067 495.009 347C498.476 347.8 500.209 349 500.209 350.6L475.809 347.8C477.276 348.067 479.076 348.4 481.209 348.8C483.343 349.067 485.476 349.4 487.609 349.8C489.876 350.2 492.076 350.6 494.209 351C496.343 351.267 498.143 351.533 499.609 351.8C499.609 352.2 499.543 352.6 499.409 353C499.409 353.267 499.409 353.533 499.409 353.8C499.409 354.067 499.543 354.267 499.809 354.4C500.209 354.4 500.609 354.467 501.009 354.6C501.543 354.6 502.009 354.733 502.409 355C502.809 355.133 503.209 355.533 503.609 356.2L499.609 345.6ZM456.209 302.8C456.476 302.8 456.543 303 456.409 303.4C456.409 303.667 456.476 303.8 456.609 303.8C456.876 303.8 457.676 302.867 459.009 301C460.343 299.133 461.876 297 463.609 294.6C465.343 292.2 467.009 289.933 468.609 287.8C470.209 285.667 471.343 284.267 472.009 283.6L471.009 282.2C468.209 284.867 465.609 288 463.209 291.6C460.809 295.2 458.476 298.933 456.209 302.8ZM476.409 281.2C480.676 288.4 484.609 295.933 488.209 303.8C491.676 311.533 494.943 319.267 498.009 327C495.476 319.267 492.409 311.533 488.809 303.8C485.076 295.933 481.009 288.4 476.609 281.2H476.409ZM507.009 311.2C511.143 321.867 515.209 332.733 519.209 343.8C515.476 333 511.543 322.333 507.409 311.8C503.543 301.4 499.076 290.933 494.009 280.4C498.809 290.533 503.143 300.8 507.009 311.2ZM477.609 276.8C479.343 277.2 480.543 277.6 481.209 278C481.876 278.4 482.343 278.6 482.609 278.6L482.809 278C482.943 278 482.676 277.933 482.009 277.8C481.343 277.667 480.809 277.533 480.409 277.4L480.809 276.6L478.409 275.8L477.609 276.8ZM467.809 274.8L469.409 279L469.209 274.8C468.943 274.8 468.609 274.733 468.209 274.6C467.943 274.467 467.676 274.4 467.409 274.4L467.809 274.8ZM473.009 280.6L471.609 281.6L472.809 283.2L474.009 282L473.009 280.6ZM475.809 280.2H476.009L475.009 278.8V279L475.809 280.2ZM647.986 377.8C647.719 381.133 646.386 384.067 643.986 386.6C641.719 389 638.853 391.067 635.386 392.8C632.053 394.4 628.453 395.6 624.586 396.4C620.853 397.2 617.453 397.6 614.386 397.6C605.319 397.6 597.186 395.467 589.986 391.2C582.786 386.8 576.653 381.2 571.586 374.4C566.519 367.467 562.519 359.8 559.586 351.4C556.786 343.267 555.186 335.267 554.786 327.4C555.053 335.533 556.586 343.733 559.386 352C562.319 360.533 566.319 368.267 571.386 375.2C576.453 382.133 582.653 387.8 589.986 392.2C597.319 396.467 605.586 398.6 614.786 398.6C619.853 398.6 624.786 397.8 629.586 396.2C634.386 394.6 638.853 392.4 642.986 389.6C639.919 394.267 635.853 397.6 630.786 399.6C625.719 401.6 620.519 402.6 615.186 402.6C609.186 402.6 603.653 401.733 598.586 400C593.519 398.4 588.586 395.8 583.786 392.2L582.986 389C577.519 385.667 572.786 381.533 568.786 376.6C564.919 371.667 561.719 366.333 559.186 360.6C556.786 354.867 554.986 348.867 553.786 342.6C552.719 336.333 552.186 330.067 552.186 323.8C552.186 317.133 552.786 310.533 553.986 304C555.319 297.333 557.119 290.8 559.386 284.4C558.853 284.4 558.586 284.2 558.586 283.8C555.786 289.933 553.719 296.267 552.386 302.8C551.053 309.333 550.386 316 550.386 322.8C550.386 335.733 552.919 348.2 557.986 360.2C563.053 372.067 570.586 382.133 580.586 390.4C575.386 386.4 570.786 381.8 566.786 376.6C562.919 371.4 559.719 365.867 557.186 360C554.653 354 552.719 347.8 551.386 341.4C550.186 335 549.586 328.533 549.586 322C549.586 313.2 550.786 304.267 553.186 295.2C555.719 286 559.453 277.667 564.386 270.2C569.453 262.733 575.719 256.667 583.186 252C590.653 247.2 599.386 244.8 609.386 244.8C613.919 244.8 618.186 245.533 622.186 247C626.319 248.467 630.186 250.4 633.786 252.8C637.386 255.2 640.719 257.933 643.786 261C646.986 264.067 649.986 267.2 652.786 270.4L648.586 274C646.719 273.333 644.919 272.333 643.186 271C641.586 269.533 640.119 268.067 638.786 266.6L637.586 268C639.319 270 640.919 272.333 642.386 275C643.853 277.533 644.586 280.2 644.586 283L642.386 286.6C640.653 286.467 638.453 285.467 635.786 283.6C633.253 281.6 630.386 279.533 627.186 277.4C624.119 275.133 620.919 273.067 617.586 271.2C614.386 269.333 611.253 268.4 608.186 268.4C604.186 268.4 600.586 269.4 597.386 271.4C594.319 273.4 591.519 276 588.986 279.2C586.453 282.4 584.253 286.067 582.386 290.2C580.653 294.333 579.186 298.533 577.986 302.8C576.919 307.067 576.053 311.267 575.386 315.4C574.853 319.4 574.586 322.933 574.586 326C574.586 331.2 575.386 336.933 576.986 343.2C578.719 349.467 581.186 355.333 584.386 360.8C587.719 366.133 591.786 370.6 596.586 374.2C601.386 377.8 606.853 379.6 612.986 379.6C615.786 379.6 618.653 379.333 621.586 378.8C624.653 378.133 627.386 377.067 629.786 375.6L631.386 377.4C626.319 381.267 620.519 383.2 613.986 383.2C607.586 383.2 601.719 381.667 596.386 378.6C598.919 380.333 601.719 381.6 604.786 382.4C608.119 383.333 611.453 383.8 614.786 383.8C620.919 383.8 626.653 382.067 631.986 378.6L633.786 381.2C635.119 379.733 636.786 378.333 638.786 377C640.786 375.533 642.853 374.667 644.986 374.4L647.986 377.8ZM571.586 337.6C572.253 345.333 574.519 352.733 578.386 359.8C582.253 366.733 587.319 372.333 593.586 376.6C587.319 372.2 582.386 366.533 578.786 359.6C575.053 352.533 572.653 345.2 571.586 337.6Z" fill="white"/>
</g>
<g filter="url(#filter2_d_42_33)">
<path d="M217.64 475.76C201.213 475.76 184.893 476.293 168.68 477.36C152.467 478.213 136.253 478.64 120.04 478.64C122.813 478.853 125.48 479.067 128.04 479.28C130.813 479.28 133.693 479.28 136.68 479.28C146.493 479.28 156.2 479.173 165.8 478.96C175.613 478.533 185.427 478.32 195.24 478.32H204.84C208.04 478.32 211.347 478.427 214.76 478.64C211.773 480.56 208.573 481.947 205.16 482.8C201.96 483.653 198.653 484.293 195.24 484.72C192.04 484.933 188.627 485.04 185 485.04C181.587 485.04 178.173 485.147 174.76 485.36L171.88 481.52C166.973 482.373 162.067 482.907 157.16 483.12C152.253 483.333 147.347 483.44 142.44 483.44L113.96 483.12L114.28 486L167.72 485.68C149.587 486.747 131.773 487.387 114.28 487.6C114.493 490.373 114.707 493.147 114.92 495.92C115.133 498.48 115.453 501.147 115.88 503.92L112.04 504.88C113.747 512.133 114.92 520.133 115.56 528.88C116.413 537.413 117.16 546.16 117.8 555.12C118.44 564.08 119.293 572.933 120.36 581.68C121.64 590.213 123.453 598 125.8 605.04L126.76 604.08C125.48 596.827 124.307 589.04 123.24 580.72C122.173 572.187 121.107 563.547 120.04 554.8C119.187 545.84 118.333 537.093 117.48 528.56C116.84 520.453 116.307 512.88 115.88 505.84C116.733 517.147 118.013 528.987 119.72 541.36C121.64 553.947 123.667 566.747 125.8 579.76C127.933 592.56 129.96 605.253 131.88 617.84C134.013 630.427 135.933 642.48 137.64 654C138.067 657.627 138.6 661.573 139.24 665.84C139.88 669.893 140.2 674.053 140.2 678.32V682.16C140.2 683.653 139.987 685.04 139.56 686.32C138.067 686.32 136.573 686.533 135.08 686.96C133.8 687.6 132.413 687.92 130.92 687.92C128.573 687.92 127.08 686.747 126.44 684.4C126.013 682.053 125.8 680.027 125.8 678.32H122.92C122.707 679.6 122.28 681.2 121.64 683.12C121.213 685.253 120.467 687.28 119.4 689.2C118.547 691.12 117.373 692.72 115.88 694C114.6 695.28 113.107 695.92 111.4 695.92C109.267 695.92 107.347 694.427 105.64 691.44C103.933 688.453 102.333 684.613 100.84 679.92C99.56 675.227 98.3867 670.107 97.32 664.56C96.4667 658.8 95.6133 653.36 94.76 648.24C94.12 642.907 93.48 638.107 92.84 633.84C92.4133 629.573 91.9867 626.48 91.56 624.56C89.4267 615.6 87.4 605.787 85.48 595.12C83.7733 584.453 82.28 573.68 81 562.8C79.72 551.92 78.6533 541.147 77.8 530.48C77.16 519.6 76.84 509.467 76.84 500.08C76.84 498.587 76.84 497.2 76.84 495.92C77.0533 494.427 77.16 492.933 77.16 491.44V489.52C77.16 488.667 77.0533 487.813 76.84 486.96C64.2533 486.747 52.3067 486.213 41 485.36C29.6933 484.293 17.1067 482.907 3.24 481.2C3.45333 479.92 3.56 478.533 3.56 477.04C3.56 475.547 3.66667 474.16 3.88 472.88C4.30667 471.6 4.84 470.533 5.48 469.68C6.33333 468.613 7.72 468.08 9.64 468.08C10.92 468.08 12.4133 468.293 14.12 468.72L15.08 465.84C12.52 464.773 9.53333 463.067 6.12 460.72C2.70667 458.373 1 455.6 1 452.4C1 450.48 1.74667 449.093 3.24 448.24C4.73333 447.173 6.54667 446.427 8.68 446C10.8133 445.573 12.9467 445.36 15.08 445.36C17.2133 445.147 18.8133 445.04 19.88 445.04C27.56 445.04 35.1333 445.467 42.6 446.32C50.28 447.173 57.96 447.6 65.64 447.6C85.0533 447.6 104.36 447.92 123.56 448.56C142.76 448.987 162.067 449.2 181.48 449.2C185.32 449.2 189.053 448.667 192.68 447.6C196.52 446.533 200.36 446 204.2 446C205.693 446 206.973 446.427 208.04 447.28C209.32 448.133 209.96 449.413 209.96 451.12C204.2 452.187 198.333 453.04 192.36 453.68C187.027 454.107 181.587 454.533 176.04 454.96C181.587 454.96 187.027 454.747 192.36 454.32C198.12 453.893 203.987 453.467 209.96 453.04V459.12L215.72 458.16C217.427 458.587 219.027 459.44 220.52 460.72C222.013 461.787 222.76 463.387 222.76 465.52C222.76 467.44 222.227 469.36 221.16 471.28C220.093 472.987 218.92 474.48 217.64 475.76ZM105.32 487.6C105.747 493.787 106.28 500.613 106.92 508.08C107.773 515.547 108.627 523.12 109.48 530.8C110.333 538.48 111.187 546.053 112.04 553.52C113.107 560.773 114.067 567.493 114.92 573.68C114.28 567.707 113.533 560.987 112.68 553.52C112.04 546.053 111.4 538.48 110.76 530.8C110.12 523.12 109.48 515.547 108.84 508.08C108.413 500.613 108.2 493.787 108.2 487.6H105.32ZM163.56 454.96H145.96C140.627 454.96 135.293 454.853 129.96 454.64C132.52 455.067 134.973 455.493 137.32 455.92C140.307 456.56 143.613 456.88 147.24 456.88C149.8 456.88 152.467 456.667 155.24 456.24C158.227 455.813 161 455.387 163.56 454.96ZM106.6 486H108.2V483.12H106.6V486ZM298.748 697.84C308.134 700.827 317.734 702.32 327.548 702.32C338.641 702.32 348.988 700.613 358.588 697.2C368.188 693.787 376.934 689.093 384.828 683.12C392.721 677.147 399.654 670.213 405.628 662.32C409.894 656.773 413.628 650.8 416.828 644.4C414.054 650.373 410.854 656.24 407.228 662C402.108 670.107 395.708 677.253 388.028 683.44C380.561 689.627 371.921 694.533 362.108 698.16C352.294 702 341.201 703.92 328.828 703.92H324.668C306.961 703.92 291.601 699.973 278.588 692.08C265.574 684.187 254.801 674.16 246.268 662C237.734 649.627 231.334 635.867 227.068 620.72C223.014 605.573 220.988 590.64 220.988 575.92C220.988 569.733 221.308 563.227 221.948 556.4C222.588 549.36 223.974 542.32 226.108 535.28C228.241 528.24 231.228 521.413 235.068 514.8C239.121 507.973 244.561 501.787 251.388 496.24C256.934 491.76 262.908 488.027 269.308 485.04C275.921 481.84 282.428 480.027 288.828 479.6C288.188 480.027 287.868 480.453 287.868 480.88C287.868 481.733 288.294 482.693 289.148 483.76C290.214 484.613 290.748 485.573 290.748 486.64V487.28C290.748 488.133 290.214 488.773 289.148 489.2C288.294 489.627 286.801 490.267 284.668 491.12C282.534 491.76 279.761 492.827 276.348 494.32C272.934 495.813 268.881 498.053 264.188 501.04C265.468 502.32 266.108 503.28 266.108 503.92C270.161 501.787 273.894 500.293 277.308 499.44C280.721 498.587 283.921 498.16 286.908 498.16C293.094 498.16 297.574 499.227 300.348 501.36C303.121 503.493 304.508 505.093 304.508 506.16C304.508 507.867 303.121 509.253 300.348 510.32C297.788 511.387 294.694 512.773 291.068 514.48C287.654 515.973 284.028 518.107 280.188 520.88C276.348 523.44 273.361 527.28 271.228 532.4C267.814 537.52 265.148 543.92 263.228 551.6C261.521 559.28 260.668 567.067 260.668 574.96C260.668 588.4 262.268 600.667 265.468 611.76C268.668 622.853 273.148 632.453 278.908 640.56C284.881 648.667 292.028 654.96 300.348 659.44C308.881 663.92 318.481 666.16 329.148 666.16C339.388 666.16 348.561 663.6 356.668 658.48C364.988 653.36 372.028 646.427 377.788 637.68C383.548 628.72 387.921 618.48 390.908 606.96C393.894 595.227 395.388 582.747 395.388 569.52C395.388 563.12 394.961 556.827 394.108 550.64C393.468 544.24 391.974 538.16 389.628 532.4C387.494 526.64 384.401 521.2 380.348 516.08C376.508 510.96 371.388 506.267 364.988 502C356.881 497.733 350.268 494.747 345.148 493.04C340.028 491.12 337.468 489.307 337.468 487.6C337.468 486.96 337.894 486.213 338.748 485.36C349.414 487.707 359.014 491.547 367.548 496.88C375.441 501.787 382.054 508.187 387.388 516.08C381.628 507.333 375.121 500.613 367.868 495.92C359.974 490.587 350.588 486.427 339.708 483.44C340.774 482.373 341.308 481.413 341.308 480.56C341.308 479.707 339.708 478.96 336.508 478.32C333.521 477.68 330.214 476.933 326.588 476.08C322.961 475.227 319.548 474.16 316.348 472.88C313.361 471.6 311.868 470 311.868 468.08C311.868 465.733 313.788 464.027 317.628 462.96C321.468 461.893 326.161 460.613 331.708 459.12C333.201 459.12 334.588 459.333 335.868 459.76C337.361 460.187 338.641 460.613 339.708 461.04C350.161 462.96 360.081 466.373 369.468 471.28C379.068 476.187 387.601 482.48 395.068 490.16C402.748 497.84 409.148 507.013 414.268 517.68C419.388 528.133 422.694 539.973 424.188 553.2C423.121 540.613 420.241 529.2 415.548 518.96C411.068 508.507 405.094 499.227 397.628 491.12C390.374 483.013 381.841 476.187 372.028 470.64C362.214 465.093 351.761 460.827 340.668 457.84C350.481 457.84 360.188 459.867 369.787 463.92C379.601 467.76 388.561 473.52 396.668 481.2C404.774 488.667 411.814 497.947 417.788 509.04C423.761 520.133 428.028 532.827 430.588 547.12C430.161 547.12 429.521 547.333 428.668 547.76C427.814 547.973 427.174 548.08 426.748 548.08C428.668 558.96 429.628 569.52 429.628 579.76C429.628 594.693 427.281 609.307 422.588 623.6C418.108 637.893 411.494 650.693 402.748 662C394.214 673.093 383.654 682.053 371.068 688.88C358.481 695.92 344.081 699.44 327.868 699.44C318.268 699.44 308.881 698.053 299.708 695.28C290.534 692.507 282.001 688.773 274.108 684.08C274.534 684.507 274.748 684.933 274.748 685.36C274.748 685.787 274.214 686 273.148 686C281.041 691.12 289.574 695.067 298.748 697.84ZM424.828 583.28C423.761 591.6 422.161 600.24 420.028 609.2C418.108 617.947 415.334 626.587 411.708 635.12C408.294 643.653 403.921 651.653 398.588 659.12C393.254 666.373 386.961 672.667 379.708 678C386.961 672.88 393.361 666.8 398.908 659.76C404.454 652.507 409.041 644.613 412.668 636.08C416.508 627.547 419.388 618.587 421.308 609.2C423.441 599.6 424.721 590.107 425.148 580.72C424.934 581.36 424.828 582.213 424.828 583.28ZM399.228 601.84C397.521 609.947 394.961 617.84 391.548 625.52C388.134 632.987 383.761 639.707 378.428 645.68C383.974 639.92 388.454 633.307 391.868 625.84C395.281 618.373 397.734 610.373 399.228 601.84ZM432.188 573.68C432.188 577.307 431.974 581.04 431.548 584.88C431.334 588.507 431.014 592.24 430.588 596.08C430.588 592.453 430.801 588.4 431.228 583.92C431.654 579.227 431.868 574.107 431.868 568.56V562.8C432.081 564.507 432.188 566.32 432.188 568.24V573.68ZM399.228 601.84C400.294 597.147 401.041 592.453 401.468 587.76C402.108 582.853 402.428 577.947 402.428 573.04C402.428 567.707 402.108 562.267 401.468 556.72C401.681 559.067 401.788 561.307 401.788 563.44C402.001 565.573 402.108 567.813 402.108 570.16C402.108 581.04 401.148 591.6 399.228 601.84ZM430.588 598L427.708 613.68C426.641 617.52 425.574 621.36 424.508 625.2C423.441 628.827 422.161 632.453 420.668 636.08C423.014 629.467 424.934 622.853 426.428 616.24C428.134 609.627 429.521 603.12 430.588 596.72V598ZM273.468 686.64C273.468 686.427 273.361 686.213 273.148 686C273.148 686.213 273.254 686.427 273.468 686.64ZM420.668 636.08C420.241 636.933 419.921 637.68 419.708 638.32C419.921 637.68 420.241 636.933 420.668 636.08ZM417.148 643.76C417.574 643.12 417.894 642.48 418.108 641.84C417.894 642.48 417.574 643.12 417.148 643.76ZM389.308 518.64C389.094 518.213 388.774 517.787 388.348 517.36C388.561 517.787 388.881 518.213 389.308 518.64ZM419.708 638.32C419.281 639.387 418.854 640.453 418.428 641.52C418.854 640.453 419.281 639.387 419.708 638.32ZM589.703 574C581.383 571.013 572.743 569.093 563.783 568.24C555.249 567.173 546.503 566.213 537.543 565.36C545.649 566.64 553.969 567.813 562.503 568.88C571.463 569.947 579.889 572.293 587.783 575.92C586.929 576.773 586.076 577.52 585.223 578.16C584.369 578.8 583.516 579.12 582.663 579.12C579.676 579.12 576.796 578.8 574.023 578.16C571.249 577.307 568.263 576.88 565.063 576.88V573.04C563.996 573.253 562.503 573.36 560.583 573.36C555.249 573.36 550.023 572.613 544.903 571.12C539.783 569.627 534.556 568.88 529.223 568.88C526.449 568.88 523.783 569.2 521.223 569.84V571.12C528.049 571.547 534.983 572.293 542.023 573.36C549.276 574.213 556.636 575.387 564.103 576.88C557.276 575.813 549.916 574.853 542.023 574C534.343 573.147 527.089 572.72 520.263 572.72C517.489 572.72 514.823 572.827 512.263 573.04C509.916 573.04 507.569 573.147 505.223 573.36C505.223 577.84 505.329 583.067 505.543 589.04C505.756 595.013 506.183 600.88 506.823 606.64C507.463 612.187 508.209 617.093 509.063 621.36C509.916 625.627 510.983 628.4 512.263 629.68L515.143 635.44C517.703 643.333 526.236 647.28 540.743 647.28C543.943 647.28 547.783 646.853 552.263 646C556.743 645.147 561.223 644.187 565.703 643.12C570.396 641.84 574.769 640.773 578.823 639.92C583.089 639.067 586.716 638.64 589.703 638.64C592.689 638.64 594.396 639.067 594.823 639.92C595.249 640.773 595.463 641.947 595.463 643.44C586.503 644.507 577.863 646.107 569.543 648.24C562.289 650.16 555.249 651.653 548.423 652.72C555.249 651.653 562.183 650.373 569.223 648.88C577.543 646.96 585.969 645.467 594.503 644.4C594.076 645.68 593.863 646.533 593.863 646.96C593.863 648.24 594.396 649.307 595.463 650.16L599.943 649.52C601.223 649.307 602.503 649.2 603.783 649.2C605.063 648.987 606.236 648.667 607.303 648.24C611.143 649.307 613.809 650.48 615.303 651.76C617.009 653.04 617.863 654.427 617.863 655.92C617.863 658.693 616.476 660.613 613.703 661.68C611.143 662.747 608.689 664.453 606.343 666.8H605.062C598.876 666.8 592.903 667.333 587.143 668.4C581.383 669.253 575.623 670.213 569.863 671.28C564.316 672.347 558.556 673.413 552.583 674.48C546.823 675.333 540.849 675.76 534.663 675.76H530.183H528.263C532.316 676.187 536.689 676.4 541.383 676.4C547.356 676.4 552.903 676.08 558.023 675.44C563.356 674.8 568.476 674.053 573.383 673.2C578.289 672.347 582.983 671.6 587.463 670.96C592.156 670.32 596.849 670 601.543 670C598.129 671.707 593.969 673.413 589.063 675.12C584.156 676.613 578.716 677.893 572.743 678.96C566.769 680.24 560.583 681.2 554.183 681.84C547.783 682.693 541.489 683.12 535.303 683.12C531.036 683.12 526.876 682.907 522.823 682.48C518.769 682.053 514.396 680.667 509.703 678.32L509.383 674.8C506.396 673.733 503.196 671.813 499.783 669.04C496.583 666.053 493.596 662.96 490.823 659.76C488.049 656.56 485.703 653.573 483.783 650.8C481.863 648.027 480.903 646.213 480.903 645.36L479.943 642.48C478.023 638.427 476.423 633.947 475.143 629.04C474.076 624.133 473.223 619.227 472.583 614.32C471.943 609.2 471.409 604.187 470.983 599.28C470.556 594.373 470.236 589.787 470.023 585.52C469.596 578.48 469.276 571.44 469.063 564.4C468.849 557.147 468.743 549.893 468.743 542.64C468.743 535.387 468.743 528.133 468.743 520.88C468.956 513.413 469.063 505.947 469.063 498.48H468.103C467.036 506.587 466.396 514.373 466.182 521.84C466.182 529.307 466.182 536.773 466.182 544.24V556.72C466.182 571.653 466.929 587.227 468.423 603.44C470.129 619.653 474.289 635.44 480.903 650.8C475.996 642.48 472.903 634.267 471.623 626.16C470.343 617.84 469.169 610.16 468.103 603.12C466.823 593.947 465.863 585.093 465.223 576.56C464.796 568.027 464.583 559.28 464.583 550.32V543.6C464.583 531.227 464.903 518.64 465.543 505.84C466.183 493.04 468.103 479.493 471.303 465.2C470.023 465.2 469.383 464.56 469.383 463.28C469.383 462 470.023 460.187 471.303 457.84C472.796 455.493 474.609 453.253 476.743 451.12C478.876 448.773 481.223 446.853 483.783 445.36C486.556 443.653 489.223 442.8 491.783 442.8H567.943C575.836 444.293 583.516 445.573 590.983 446.64C598.663 447.493 606.663 448.133 614.983 448.56L614.663 455.92C614.663 457.2 614.023 458.267 612.743 459.12C611.676 459.76 609.116 460.08 605.062 460.08C603.783 460.08 602.183 460.08 600.263 460.08C598.556 459.867 596.636 459.653 594.503 459.44V462.32C603.249 464.24 610.076 466.587 614.983 469.36C620.103 472.133 622.663 474.8 622.663 477.36C622.663 480.347 619.783 482.16 614.022 482.8C608.476 483.44 601.009 483.76 591.623 483.76C579.676 483.76 566.876 483.76 553.223 483.76C539.783 483.547 526.769 482.907 514.183 481.84H508.743C507.676 489.947 506.929 498.267 506.503 506.8C506.076 515.333 505.756 524.08 505.543 533.04C508.956 533.04 512.263 532.933 515.463 532.72C518.876 532.293 522.396 532.08 526.023 532.08C529.009 532.08 532.423 532.4 536.263 533.04C540.316 533.467 544.476 534.107 548.743 534.96C553.223 535.813 557.596 536.88 561.863 538.16C566.343 539.227 570.396 540.4 574.023 541.68C574.663 541.893 575.409 542 576.263 542H581.703C584.476 542 586.289 542.427 587.143 543.28C588.209 544.133 588.743 545.84 588.743 548.4C585.116 548.4 581.703 548.187 578.503 547.76C575.303 547.333 572.209 546.907 569.223 546.48C572.209 547.547 575.303 548.4 578.503 549.04C581.703 549.467 585.116 549.893 588.743 550.32C588.316 551.387 587.996 552.347 587.783 553.2C587.783 554.053 587.783 554.8 587.783 555.44C589.916 555.867 591.303 556.933 591.943 558.64C592.796 560.133 593.223 561.84 593.223 563.76C593.223 566.533 592.583 568.773 591.303 570.48C590.236 571.973 589.703 573.147 589.703 574ZM477.063 610.16C477.916 615.28 478.876 620.827 479.943 626.8C481.223 632.56 483.036 638.32 485.383 644.08C487.943 649.627 491.356 654.853 495.623 659.76C499.036 663.813 503.516 667.227 509.063 670C502.663 666.587 497.436 661.893 493.383 655.92C488.689 648.667 484.956 640.56 482.183 631.6C479.623 622.64 477.703 613.147 476.423 603.12C475.356 593.093 474.503 583.493 473.863 574.32C474.076 580.08 474.396 585.947 474.823 591.92C475.249 597.893 475.996 603.973 477.063 610.16ZM555.463 544.88C559.089 545.52 562.929 546.053 566.983 546.48C563.143 545.413 559.516 544.667 556.103 544.24C552.689 543.6 549.276 542.853 545.863 542C548.636 543.28 551.836 544.24 555.463 544.88ZM502.983 676.08C500.209 674.8 497.756 673.307 495.623 671.6C494.129 670.32 492.743 669.04 491.463 667.76C492.743 669.04 494.236 670.213 495.943 671.28C498.289 672.987 500.636 674.587 502.983 676.08ZM512.583 671.6L509.703 670.32L512.583 671.6Z" fill="#F2C14E"/>
</g>
<defs>
<filter id="filter0_d_42_33" x="0" y="48.2" width="322.805" height="191" filterUnits="userSpaceOnUse" color-interpolation-filters="sRGB">
<feFlood flood-opacity="0" result="BackgroundImageFix"/>
<feColorMatrix in="SourceAlpha" type="matrix" values="0 0 0 0 0 0 0 0 0 0 0 0 0 0 0 0 0 0 127 0" result="hardAlpha"/>
<feOffset dx="10" dy="4"/>
<feGaussianBlur stdDeviation="2"/>
<feComposite in2="hardAlpha" operator="out"/>
<feColorMatrix type="matrix" values="0 0 0 0 0 0 0 0 0 0 0 0 0 0 0 0 0 0 0.75 0"/>
<feBlend mode="normal" in2="BackgroundImageFix" result="effect1_dropShadow_42_33"/>
<feBlend mode="normal" in="SourceGraphic" in2="effect1_dropShadow_42_33" result="shape"/>
</filter>
<filter id="filter1_d_42_33" x="265" y="244.8" width="401.786" height="176.6" filterUnits="userSpaceOnUse" color-interpolation-filters="sRGB">
<feFlood flood-opacity="0" result="BackgroundImageFix"/>
<feColorMatrix in="SourceAlpha" type="matrix" values="0 0 0 0 0 0 0 0 0 0 0 0 0 0 0 0 0 0 127 0" result="hardAlpha"/>
<feOffset dx="10" dy="4"/>
<feGaussianBlur stdDeviation="2"/>
<feComposite in2="hardAlpha" operator="out"/>
<feColorMatrix type="matrix" values="0 0 0 0 0 0 0 0 0 0 0 0 0 0 0 0 0 0 0.75 0"/>
<feBlend mode="normal" in2="BackgroundImageFix" result="effect1_dropShadow_42_33"/>
<feBlend mode="normal" in="SourceGraphic" in2="effect1_dropShadow_42_33" result="shape"/>
</filter>
<filter id="filter2_d_42_33" x="1" y="442.8" width="635.663" height="269.12" filterUnits="userSpaceOnUse" color-interpolation-filters="sRGB">
<feFlood flood-opacity="0" result="BackgroundImageFix"/>
<feColorMatrix in="SourceAlpha" type="matrix" values="0 0 0 0 0 0 0 0 0 0 0 0 0 0 0 0 0 0 127 0" result="hardAlpha"/>
<feOffset dx="10" dy="4"/>
<feGaussianBlur stdDeviation="2"/>
<feComposite in2="hardAlpha" operator="out"/>
<feColorMatrix type="matrix" values="0 0 0 0 0 0 0 0 0 0 0 0 0 0 0 0 0 0 0.75 0"/>
<feBlend mode="normal" in2="BackgroundImageFix" result="effect1_dropShadow_42_33"/>
<feBlend mode="normal" in="SourceGraphic" in2="effect1_dropShadow_42_33" result="shape"/>
</filter>
</defs>
</svg>
